<svg xmlns="http://www.w3.org/2000/svg" width="1020" height="620" viewBox="0 0 1020 620">
<rect width="100%" height="100%" fill="#FFFFFF"/>
<text x="510.0" y="42" text-anchor="middle" font-family="Arial, sans-serif" font-size="28" fill="#1F2937" font-weight="700">Biology avg@16: Authors vs Wambo</text>
<line x1="90" y1="525.00" x2="980" y2="525.00" stroke="#D8DDE6" stroke-width="1"/>
<text x="78" y="530.00" text-anchor="end" font-family="Arial, sans-serif" font-size="12" fill="#6B7280">0</text>
<line x1="90" y1="450.83" x2="980" y2="450.83" stroke="#D8DDE6" stroke-width="1"/>
<text x="78" y="455.83" text-anchor="end" font-family="Arial, sans-serif" font-size="12" fill="#6B7280">10</text>
<line x1="90" y1="376.67" x2="980" y2="376.67" stroke="#D8DDE6" stroke-width="1"/>
<text x="78" y="381.67" text-anchor="end" font-family="Arial, sans-serif" font-size="12" fill="#6B7280">20</text>
<line x1="90" y1="302.50" x2="980" y2="302.50" stroke="#D8DDE6" stroke-width="1"/>
<text x="78" y="307.50" text-anchor="end" font-family="Arial, sans-serif" font-size="12" fill="#6B7280">30</text>
<line x1="90" y1="228.33" x2="980" y2="228.33" stroke="#D8DDE6" stroke-width="1"/>
<text x="78" y="233.33" text-anchor="end" font-family="Arial, sans-serif" font-size="12" fill="#6B7280">40</text>
<line x1="90" y1="154.17" x2="980" y2="154.17" stroke="#D8DDE6" stroke-width="1"/>
<text x="78" y="159.17" text-anchor="end" font-family="Arial, sans-serif" font-size="12" fill="#6B7280">50</text>
<line x1="90" y1="80.00" x2="980" y2="80.00" stroke="#D8DDE6" stroke-width="1"/>
<text x="78" y="85.00" text-anchor="end" font-family="Arial, sans-serif" font-size="12" fill="#6B7280">60</text>
<line x1="90" y1="80" x2="90" y2="525" stroke="#374151" stroke-width="2"/>
<line x1="90" y1="525" x2="980" y2="525" stroke="#374151" stroke-width="2"/>
<text x="26" y="302.5" transform="rotate(-90 26,302.5)" font-family="Arial, sans-serif" font-size="14" fill="#374151">avg@16 (%)</text>
<rect x="181.30" y="296.57" width="120" height="228.43" rx="6" fill="#4C78A8"/>
<text x="241.30" y="288.57" text-anchor="middle" font-family="Arial, sans-serif" font-size="13" font-weight="600" fill="#4C78A8">30.8%</text>
<text x="241.30" y="559" text-anchor="middle" font-family="Arial, sans-serif" font-size="15" fill="#1F2937">Baseline</text>
<rect x="377.10" y="149.72" width="120" height="375.28" rx="6" fill="#4C78A8"/>
<text x="437.10" y="141.72" text-anchor="middle" font-family="Arial, sans-serif" font-size="13" font-weight="600" fill="#4C78A8">50.6%</text>
<text x="437.10" y="559" text-anchor="middle" font-family="Arial, sans-serif" font-size="15" fill="#1F2937">best during first hour</text>
<rect x="590.70" y="319.19" width="120" height="205.81" rx="6" fill="#F58518"/>
<text x="650.70" y="311.19" text-anchor="middle" font-family="Arial, sans-serif" font-size="13" font-weight="600" fill="#F58518">27.75%</text>
<text x="650.70" y="559" text-anchor="middle" font-family="Arial, sans-serif" font-size="15" fill="#1F2937">Baseline</text>
<rect x="786.50" y="219.06" width="120" height="305.94" rx="6" fill="#F58518"/>
<text x="846.50" y="211.06" text-anchor="middle" font-family="Arial, sans-serif" font-size="13" font-weight="600" fill="#F58518">41.25%</text>
<text x="846.50" y="559" text-anchor="middle" font-family="Arial, sans-serif" font-size="15" fill="#1F2937">1h</text>
<text x="339.20" y="587" text-anchor="middle" font-family="Arial, sans-serif" font-size="14" fill="#4C78A8" font-weight="700">Authors</text>
<text x="748.60" y="587" text-anchor="middle" font-family="Arial, sans-serif" font-size="14" fill="#F58518" font-weight="700">Wambo</text>
<rect x="735" y="88" width="18" height="18" rx="3" fill="#4C78A8"/>
<text x="761" y="102" font-family="Arial, sans-serif" font-size="14" fill="#1F2937">Authors</text>
<rect x="853" y="88" width="18" height="18" rx="3" fill="#F58518"/>
<text x="879" y="102" font-family="Arial, sans-serif" font-size="14" fill="#1F2937">Wambo</text>
</svg>